<?xml version="1.0" standalone="no"?>
<!DOCTYPE svg PUBLIC "-//W3C//DTD SVG 20010904//EN"
 "http://www.w3.org/TR/2001/REC-SVG-20010904/DTD/svg10.dtd">
<svg version="1.0" xmlns="http://www.w3.org/2000/svg"
 width="300.000000pt" height="300.000000pt" viewBox="0 0 300.000000 300.000000"
 preserveAspectRatio="xMidYMid meet">
<metadata>
Created by potrace 1.14, written by Peter Selinger 2001-2017
</metadata>
<g transform="translate(0.000000,300.000000) scale(0.100000,-0.100000)"
fill="#000000" stroke="none">
<path d="M720 2531 l0 -231 75 0 75 0 0 55 c0 51 2 55 24 55 17 0 33 -14 60
-55 l36 -55 81 0 c61 0 78 3 73 13 -4 6 -25 38 -46 69 l-38 57 21 15 c42 29
59 68 59 131 0 80 -24 116 -100 151 -25 12 -76 18 -177 22 l-143 5 0 -232z
m248 93 c28 -20 30 -69 3 -84 -11 -5 -38 -10 -60 -10 l-41 0 0 55 0 55 38 0
c21 0 48 -7 60 -16z"/>
<path d="M1424 2741 c-23 -10 -54 -36 -70 -57 l-29 -37 -3 -174 -3 -173 75 0
76 0 0 70 0 70 80 0 80 0 0 60 0 60 -80 0 c-72 0 -80 2 -80 19 0 35 49 63 100
59 25 -3 51 -6 58 -9 19 -6 58 99 43 114 -7 7 -53 13 -109 15 -79 2 -105 -1
-138 -17z"/>
<path d="M1953 2739 c-50 -23 -109 -90 -123 -138 -13 -46 -13 -116 0 -161 13
-49 66 -109 114 -131 50 -23 143 -25 191 -5 19 8 35 11 35 5 0 -5 23 -9 50 -9
l50 0 0 120 0 120 -65 0 -65 0 0 -55 c0 -43 -4 -56 -19 -65 -30 -16 -86 -12
-110 8 -47 37 -45 148 4 190 43 36 135 25 166 -20 3 -5 28 11 55 35 44 41 47
46 34 62 -8 10 -37 29 -65 41 -65 31 -188 32 -252 3z"/>
<path d="M720 2094 l0 -167 -67 7 c-38 3 -99 8 -138 11 l-70 5 85 -15 c47 -7
137 -21 200 -30 63 -9 160 -23 215 -31 55 -8 138 -20 185 -27 85 -12 85 -12
88 -43 3 -31 3 -31 -55 -38 -32 -4 -197 -22 -368 -42 -373 -41 -389 -44 -212
-37 l137 5 0 -136 0 -136 -205 0 c-198 0 -205 -1 -205 -20 0 -16 7 -20 38 -20
l37 0 -32 -20 c-36 -22 -40 -32 -19 -49 12 -10 20 -9 40 4 35 23 68 12 64 -23
-2 -18 -22 -42 -65 -76 -40 -34 -62 -59 -62 -73 -1 -22 2 -23 94 -23 95 0 95
0 95 25 0 23 -3 25 -51 25 l-51 0 51 48 c60 57 68 96 26 137 l-24 25 97 0 c90
-1 95 -2 71 -15 -67 -36 -78 -164 -19 -218 17 -15 38 -28 48 -29 9 -1 -62 -5
-158 -8 -156 -4 -175 -7 -178 -22 -3 -17 12 -18 201 -18 l204 0 6 -97 c20
-338 233 -608 563 -715 58 -19 92 -22 214 -23 156 0 233 16 343 72 263 133
437 405 437 686 l0 77 206 0 c190 0 205 1 202 18 -2 13 -17 18 -58 23 -30 3
-45 6 -32 7 32 3 72 49 72 83 0 43 -39 82 -83 83 -31 1 -37 4 -37 24 0 20 5
22 56 22 55 0 56 1 52 25 -4 19 -1 25 13 25 12 0 19 7 19 20 0 19 -7 20 -205
20 l-205 0 0 136 0 137 143 -6 c150 -6 124 2 -70 22 -54 6 -196 22 -316 36
-119 14 -222 25 -227 25 -6 0 -10 15 -10 33 l0 33 381 54 c210 30 376 56 370
58 -6 2 -56 -1 -112 -7 -55 -6 -113 -11 -129 -11 l-30 0 0 165 0 165 -780 0
-780 0 0 -166z m1460 -53 l0 -119 -37 -6 c-32 -5 -371 -36 -395 -36 -5 0 -8
-35 -8 -79 l0 -79 143 -6 c78 -4 177 -9 220 -12 l77 -6 0 -159 0 -159 83 -1
c72 -1 78 -2 49 -12 -25 -8 -32 -15 -30 -31 2 -15 9 -20 25 -19 21 3 22 -1 25
-95 l3 -97 28 -3 27 -3 0 130 0 131 58 0 59 0 -10 -60 c-12 -71 0 -95 43 -86
47 9 71 -3 68 -33 -2 -21 -9 -27 -36 -29 -18 -2 -40 2 -49 9 -13 11 -18 10
-29 -6 -8 -10 -14 -22 -14 -25 0 -8 45 -29 68 -32 9 -1 -68 -5 -173 -8 l-190
-5 -6 -110 c-6 -116 -11 -142 -37 -215 -25 -68 -92 -180 -108 -180 -8 0 -47
16 -87 35 l-72 36 38 -34 c33 -31 37 -39 36 -83 l-1 -49 -14 40 c-10 29 -31
52 -73 84 -44 33 -62 53 -70 82 -11 38 -13 39 -56 39 l-45 0 0 50 0 50 -190 0
-190 0 0 -50 c0 -47 -2 -50 -25 -50 -14 0 -25 -4 -25 -10 0 -5 -13 -31 -29
-57 -16 -27 -32 -64 -36 -84 -6 -34 -4 -38 44 -74 28 -21 49 -40 48 -41 -2 -2
-35 12 -75 31 l-71 34 19 43 c11 24 20 48 20 55 0 6 -39 -13 -87 -43 -47 -30
-89 -54 -92 -54 -12 0 -85 107 -112 165 -42 90 -60 168 -66 288 l-6 107 -71 1
c-39 1 -61 4 -49 6 13 2 36 17 52 33 53 53 48 155 -10 204 l-31 26 56 0 56 0
0 159 0 159 93 6 c50 3 153 9 227 13 l135 8 0 75 0 74 -40 7 c-22 4 -105 12
-185 19 -80 6 -164 14 -187 17 l-43 6 0 118 0 119 680 0 680 0 0 -119z m-1474
-725 c23 -17 27 -103 5 -129 -19 -23 -68 -22 -81 2 -17 33 -12 99 10 121 24
24 39 25 66 6z"/>
<path d="M1501 2075 l-2 -60 -63 -52 c-35 -29 -71 -53 -80 -53 -20 0 -21 -29
-1 -36 9 -4 15 -19 15 -35 0 -26 -4 -29 -30 -29 l-30 0 0 -60 0 -60 31 0 31 0
-4 -55 -3 -55 135 0 135 0 -3 55 -4 55 37 0 36 0 -3 58 c-3 54 -4 57 -30 60
-23 3 -28 8 -28 32 0 15 7 30 15 34 20 7 19 25 -2 33 -16 6 -95 67 -130 99 -7
6 -14 38 -16 70 l-3 59 -3 -60z m70 -205 c48 0 49 -1 49 -30 0 -28 -2 -30 -40
-30 -34 0 -41 4 -46 24 -11 44 -59 44 -70 0 -5 -20 -12 -24 -45 -24 -37 0 -39
2 -39 30 0 28 1 29 58 33 31 1 63 2 70 0 8 -2 36 -3 63 -3z m-203 -118 c3 -27
0 -32 -17 -32 -17 0 -21 6 -21 36 0 28 3 35 18 32 11 -2 18 -14 20 -36z m92 2
c0 -35 -1 -35 -37 -32 -27 2 -39 8 -41 21 -7 33 6 47 43 47 33 0 35 -2 35 -36z
m160 1 c0 -34 -1 -35 -40 -35 -39 0 -40 1 -40 35 0 34 1 35 40 35 39 0 40 -1
40 -35z m60 0 c0 -28 -4 -35 -20 -35 -16 0 -20 7 -20 35 0 28 4 35 20 35 16 0
20 -7 20 -35z"/>
<path d="M1357 1474 c-4 -4 -7 -29 -7 -56 l0 -48 151 0 150 0 -3 53 -3 52
-141 3 c-77 1 -143 -1 -147 -4z"/>
<path d="M1338 1215 l-3 -55 165 0 165 0 -3 55 -4 55 -158 0 -158 0 -4 -55z"/>
<path d="M1327 1054 c-4 -4 -7 -29 -7 -56 l0 -48 181 0 180 0 -3 53 -3 52
-171 3 c-93 1 -173 -1 -177 -4z"/>
</g>
</svg>
